<?xml version="1.0" standalone="no"?>
<!DOCTYPE svg PUBLIC "-//W3C//DTD SVG 20010904//EN"
 "http://www.w3.org/TR/2001/REC-SVG-20010904/DTD/svg10.dtd">
<svg version="1.0" xmlns="http://www.w3.org/2000/svg"
 width="800.000000pt" height="600.000000pt" viewBox="0 0 800.000000 600.000000"
 preserveAspectRatio="xMidYMid meet">

<g transform="translate(0.000000,600.000000) scale(0.100000,-0.100000)"
fill="#ffffff" stroke="none">
<path d="M4672 3834 c-1 -55 -5 -149 -8 -207 -6 -97 -9 -106 -28 -110 -19 -4
-18 -4 3 -6 l24 -1 -6 -152 c-4 -84 -10 -271 -13 -415 l-7 -263 -99 0 -98 0 0
-90 0 -90 690 0 690 0 0 60 0 60 -210 0 -210 0 0 270 0 270 -190 0 -189 0 -81
-100 -81 -100 -59 0 -60 0 0 -172 c0 -94 -3 -168 -7 -164 -8 7 -43 866 -36
879 2 4 13 7 24 7 10 0 19 5 19 11 0 5 -4 8 -9 5 -5 -4 -16 -3 -25 0 -13 5
-16 24 -17 98 -1 50 -5 141 -9 201 l-7 110 -1 -101z"/>
<path d="M2212 3594 c-1 -55 -5 -149 -8 -207 -6 -97 -9 -106 -28 -110 -20 -4
-20 -4 2 -6 18 -1 22 -7 22 -33 0 -55 -19 -657 -24 -760 l-5 -98 48 0 48 0 -4
98 c-18 432 -30 778 -26 785 2 4 13 7 24 7 10 0 19 5 19 10 0 6 -11 10 -25 10
-25 0 -25 1 -26 93 -1 50 -5 142 -9 202 l-7 110 -1 -101z"/>
<path d="M3700 3250 l0 -50 120 0 120 0 0 50 0 50 -120 0 -120 0 0 -50z"/>
<path d="M3700 2780 l0 -400 120 0 120 0 0 400 0 400 -120 0 -120 0 0 -400z"/>
<path d="M3960 3000 c0 -19 7 -20 120 -20 113 0 120 1 120 20 0 19 -7 20 -120
20 -113 0 -120 -1 -120 -20z"/>
<path d="M3344 2953 c2 -5 56 -46 120 -93 l115 -85 1 -197 c0 -191 1 -198 20
-198 19 0 20 7 20 240 0 223 -1 240 -18 240 -9 0 -71 23 -137 50 -129 54 -129
54 -121 43z m190 -93 c34 -14 46 -25 46 -40 0 -20 -3 -19 -46 12 -72 51 -72
59 0 28z"/>
<path d="M3960 2670 l0 -290 195 0 c227 0 226 0 144 87 -79 84 -88 112 -95
317 l-7 176 -119 0 -118 0 0 -290z"/>
<path d="M5520 2822 c-40 -20 -60 -53 -60 -102 0 -81 -2 -80 131 -80 l119 0 0
35 0 35 155 0 155 0 0 35 0 35 -159 0 c-135 0 -161 2 -172 17 -18 21 -71 43
-106 43 -15 0 -44 -8 -63 -18z"/>
<path d="M2664 2729 c-17 -5 -51 -27 -75 -49 l-44 -39 248 -1 247 0 0 50 0 50
-172 -1 c-95 0 -187 -5 -204 -10z"/>
<path d="M3060 2560 l0 -180 49 0 48 0 6 60 c11 104 59 191 127 229 32 18 148
50 183 51 4 0 7 5 7 10 0 6 -77 10 -210 10 l-210 0 0 -180z"/>
<path d="M6200 2682 c-40 -20 -60 -53 -60 -102 0 -81 -2 -80 131 -80 l119 0 0
35 0 35 155 0 155 0 0 35 0 35 -159 0 c-135 0 -161 2 -172 17 -18 21 -71 43
-106 43 -15 0 -44 -8 -63 -18z"/>
<path d="M1847 2626 c-20 -8 -52 -25 -71 -40 l-35 -26 -200 0 -201 0 0 -50 0
-50 200 0 200 0 0 -40 0 -40 160 0 159 0 7 35 c3 20 4 61 2 92 -4 47 -10 61
-36 84 -30 27 -88 49 -127 49 -11 -1 -37 -7 -58 -14z"/>
<path d="M2494 2573 c-20 -27 -42 -54 -47 -60 -8 -10 52 -13 292 -13 l301 0 0
60 0 60 -254 0 -254 0 -38 -47z"/>
<path d="M2380 2430 l-42 -50 351 0 351 0 0 50 0 50 -309 0 -309 0 -42 -50z"/>
<path d="M4440 2430 l0 -50 615 0 c403 0 615 -3 615 -10 0 -7 -859 -10 -2556
-10 l-2555 0 6 -22 c4 -13 35 -82 70 -154 68 -140 136 -228 199 -258 31 -15
309 -16 3262 -16 l3228 0 42 21 c101 48 209 212 279 422 19 57 35 110 35 116
0 8 -428 11 -1620 11 l-1620 0 0 -50z"/>
</g>
</svg>
